<mxfile host="Electron" modified="2024-01-28T05:21:16.395Z" agent="Mozilla/5.0 (Windows NT 10.0; Win64; x64) AppleWebKit/537.36 (KHTML, like Gecko) draw.io/22.1.16 Chrome/120.0.6099.109 Electron/28.1.0 Safari/537.36" etag="GQslwcqt5suaBPlx38g7" version="22.1.16" type="device">
  <diagram name="Page-1" id="v59RE3AgLHV80X26Wo9K">
    <mxGraphModel dx="1098" dy="988" grid="1" gridSize="10" guides="1" tooltips="1" connect="1" arrows="1" fold="1" page="1" pageScale="1" pageWidth="850" pageHeight="1100" math="0" shadow="0">
      <root>
        <mxCell id="0" />
        <mxCell id="1" parent="0" />
        <mxCell id="zIHkQ0y65oXj_O2wK9hA-9" value="listens" style="edgeStyle=orthogonalEdgeStyle;rounded=0;orthogonalLoop=1;jettySize=auto;html=1;" edge="1" parent="1" source="zIHkQ0y65oXj_O2wK9hA-1" target="zIHkQ0y65oXj_O2wK9hA-2">
          <mxGeometry relative="1" as="geometry" />
        </mxCell>
        <mxCell id="zIHkQ0y65oXj_O2wK9hA-11" value="request contains&lt;br&gt;S3 pre-signed URL for response" style="edgeStyle=orthogonalEdgeStyle;rounded=0;orthogonalLoop=1;jettySize=auto;html=1;entryX=0;entryY=0.5;entryDx=0;entryDy=0;" edge="1" parent="1" source="zIHkQ0y65oXj_O2wK9hA-1" target="zIHkQ0y65oXj_O2wK9hA-10">
          <mxGeometry relative="1" as="geometry" />
        </mxCell>
        <mxCell id="zIHkQ0y65oXj_O2wK9hA-1" value="AWS CloudFormation executing the Custom Resource&lt;br&gt;By invoking the Lambda function or publishing to SNS." style="sketch=0;points=[[0,0,0],[0.25,0,0],[0.5,0,0],[0.75,0,0],[1,0,0],[0,1,0],[0.25,1,0],[0.5,1,0],[0.75,1,0],[1,1,0],[0,0.25,0],[0,0.5,0],[0,0.75,0],[1,0.25,0],[1,0.5,0],[1,0.75,0]];points=[[0,0,0],[0.25,0,0],[0.5,0,0],[0.75,0,0],[1,0,0],[0,1,0],[0.25,1,0],[0.5,1,0],[0.75,1,0],[1,1,0],[0,0.25,0],[0,0.5,0],[0,0.75,0],[1,0.25,0],[1,0.5,0],[1,0.75,0]];outlineConnect=0;fontColor=#232F3E;fillColor=#E7157B;strokeColor=#ffffff;dashed=0;verticalLabelPosition=bottom;verticalAlign=top;align=center;html=1;fontSize=12;fontStyle=0;aspect=fixed;shape=mxgraph.aws4.resourceIcon;resIcon=mxgraph.aws4.cloudformation;" vertex="1" parent="1">
          <mxGeometry x="450" y="290" width="78" height="78" as="geometry" />
        </mxCell>
        <mxCell id="zIHkQ0y65oXj_O2wK9hA-2" value="Amazon S3" style="sketch=0;points=[[0,0,0],[0.25,0,0],[0.5,0,0],[0.75,0,0],[1,0,0],[0,1,0],[0.25,1,0],[0.5,1,0],[0.75,1,0],[1,1,0],[0,0.25,0],[0,0.5,0],[0,0.75,0],[1,0.25,0],[1,0.5,0],[1,0.75,0]];outlineConnect=0;fontColor=#232F3E;fillColor=#7AA116;strokeColor=#ffffff;dashed=0;verticalLabelPosition=top;verticalAlign=bottom;align=center;html=1;fontSize=12;fontStyle=0;aspect=fixed;shape=mxgraph.aws4.resourceIcon;resIcon=mxgraph.aws4.s3;labelPosition=center;" vertex="1" parent="1">
          <mxGeometry x="450" y="90" width="78" height="78" as="geometry" />
        </mxCell>
        <mxCell id="zIHkQ0y65oXj_O2wK9hA-3" value="Amazon SNS" style="sketch=0;points=[[0,0,0],[0.25,0,0],[0.5,0,0],[0.75,0,0],[1,0,0],[0,1,0],[0.25,1,0],[0.5,1,0],[0.75,1,0],[1,1,0],[0,0.25,0],[0,0.5,0],[0,0.75,0],[1,0.25,0],[1,0.5,0],[1,0.75,0]];outlineConnect=0;fontColor=#232F3E;fillColor=#E7157B;strokeColor=#ffffff;dashed=0;verticalLabelPosition=bottom;verticalAlign=top;align=center;html=1;fontSize=12;fontStyle=0;aspect=fixed;shape=mxgraph.aws4.resourceIcon;resIcon=mxgraph.aws4.sns;" vertex="1" parent="1">
          <mxGeometry x="812" y="354" width="78" height="78" as="geometry" />
        </mxCell>
        <mxCell id="zIHkQ0y65oXj_O2wK9hA-4" value="AWS Lambda" style="sketch=0;points=[[0,0,0],[0.25,0,0],[0.5,0,0],[0.75,0,0],[1,0,0],[0,1,0],[0.25,1,0],[0.5,1,0],[0.75,1,0],[1,1,0],[0,0.25,0],[0,0.5,0],[0,0.75,0],[1,0.25,0],[1,0.5,0],[1,0.75,0]];outlineConnect=0;fontColor=#232F3E;fillColor=#ED7100;strokeColor=#ffffff;dashed=0;verticalLabelPosition=bottom;verticalAlign=top;align=center;html=1;fontSize=12;fontStyle=0;aspect=fixed;shape=mxgraph.aws4.resourceIcon;resIcon=mxgraph.aws4.lambda;" vertex="1" parent="1">
          <mxGeometry x="812" y="224" width="78" height="78" as="geometry" />
        </mxCell>
        <mxCell id="zIHkQ0y65oXj_O2wK9hA-8" value="create / update / delete" style="edgeStyle=orthogonalEdgeStyle;rounded=0;orthogonalLoop=1;jettySize=auto;html=1;" edge="1" parent="1" source="zIHkQ0y65oXj_O2wK9hA-5" target="zIHkQ0y65oXj_O2wK9hA-1">
          <mxGeometry relative="1" as="geometry" />
        </mxCell>
        <mxCell id="zIHkQ0y65oXj_O2wK9hA-5" value="Developer" style="sketch=0;outlineConnect=0;fontColor=#232F3E;gradientColor=none;fillColor=#232F3D;strokeColor=none;dashed=0;verticalLabelPosition=bottom;verticalAlign=top;align=center;html=1;fontSize=12;fontStyle=0;aspect=fixed;pointerEvents=1;shape=mxgraph.aws4.user;" vertex="1" parent="1">
          <mxGeometry x="182" y="290" width="78" height="78" as="geometry" />
        </mxCell>
        <mxCell id="zIHkQ0y65oXj_O2wK9hA-6" value="Template with custom resource" style="sketch=0;outlineConnect=0;fontColor=#232F3E;gradientColor=none;fillColor=#E7157B;strokeColor=none;dashed=0;verticalLabelPosition=top;verticalAlign=bottom;align=center;html=1;fontSize=12;fontStyle=0;aspect=fixed;pointerEvents=1;shape=mxgraph.aws4.template;labelPosition=center;" vertex="1" parent="1">
          <mxGeometry x="188.5" y="200" width="65" height="78" as="geometry" />
        </mxCell>
        <mxCell id="zIHkQ0y65oXj_O2wK9hA-14" style="edgeStyle=orthogonalEdgeStyle;rounded=0;orthogonalLoop=1;jettySize=auto;html=1;entryX=0;entryY=0.5;entryDx=0;entryDy=0;" edge="1" parent="1" source="zIHkQ0y65oXj_O2wK9hA-10" target="zIHkQ0y65oXj_O2wK9hA-13">
          <mxGeometry relative="1" as="geometry" />
        </mxCell>
        <mxCell id="zIHkQ0y65oXj_O2wK9hA-10" value="Resource Provider" style="rounded=0;whiteSpace=wrap;html=1;dashed=1;fillColor=none;verticalAlign=top;" vertex="1" parent="1">
          <mxGeometry x="790" y="184" width="122" height="290" as="geometry" />
        </mxCell>
        <mxCell id="zIHkQ0y65oXj_O2wK9hA-12" value="upload JSON response to S3&lt;br&gt;OR&lt;br&gt;directly to CloudFormation" style="edgeStyle=orthogonalEdgeStyle;rounded=0;orthogonalLoop=1;jettySize=auto;html=1;entryX=1;entryY=0.5;entryDx=0;entryDy=0;entryPerimeter=0;" edge="1" parent="1" source="zIHkQ0y65oXj_O2wK9hA-10" target="zIHkQ0y65oXj_O2wK9hA-2">
          <mxGeometry x="0.1958" y="1" relative="1" as="geometry">
            <Array as="points">
              <mxPoint x="851" y="129" />
            </Array>
            <mxPoint as="offset" />
          </mxGeometry>
        </mxCell>
        <mxCell id="zIHkQ0y65oXj_O2wK9hA-13" value="Any call example: Ad Connector set up by the Custom Resource" style="rounded=0;whiteSpace=wrap;html=1;verticalAlign=top;" vertex="1" parent="1">
          <mxGeometry x="1010" y="256" width="160" height="146" as="geometry" />
        </mxCell>
        <mxCell id="zIHkQ0y65oXj_O2wK9hA-15" value="" style="sketch=0;outlineConnect=0;fontColor=#232F3E;gradientColor=none;fillColor=#DD344C;strokeColor=none;dashed=0;verticalLabelPosition=bottom;verticalAlign=top;align=center;html=1;fontSize=12;fontStyle=0;aspect=fixed;pointerEvents=1;shape=mxgraph.aws4.ad_connector;" vertex="1" parent="1">
          <mxGeometry x="1060" y="320" width="78" height="73" as="geometry" />
        </mxCell>
      </root>
    </mxGraphModel>
  </diagram>
</mxfile>
